Coordinates
version=1
nRows=20
nColumns=30
inDegrees=yes

Units are S.I. units (second, meters, Newtons, ...)
Angles are in degrees.

endheader
time	floatyaw	floatroll	floatpitch	floatx	floaty	floatz	pro_sup_l	deviation_l	flexion_l	cmc_flexion_l	cmc_abduction_l	mp_flexion_l	ip_flexion_l	2mcp_flexion_l	2mcp_abduction_l	2pm_flexion_l	2md_flexion_l	3mcp_flexion_l	3mcp_abduction_l	3pm_flexion_l	3md_flexion_l	4mcp_flexion_l	4mcp_abduction_l	4pm_flexion_l	4md_flexion_l	5mcp_flexion_l	5mcp_abduction_l	5pm_flexion_l	5md_flexion_l
-0.495000	-1.899941	-3.552005	97.501371	-0.093405	-0.184760	-0.028939	85.461442	3.917600	-1.272924	11.292237	7.497479	-22.866036	-35.203961	41.207722	9.945658	47.997976	33.366000	25.779599	5.547536	47.724267	33.393171	15.146915	-4.903267	62.751135	43.291315	8.761844	-10.026819	63.077194	42.814195
-0.485000	-1.899941	-3.552005	97.501371	-0.093315	-0.184451	-0.028724	85.633869	3.874069	-1.187582	11.282702	7.588581	-22.795649	-35.143407	41.139794	9.911527	48.019392	33.392115	25.679195	5.554162	47.632775	33.340469	15.013145	-4.890194	62.621568	43.198261	8.651704	-10.048154	62.874094	42.748185
-0.475000	-1.899941	-3.552005	97.501371	-0.093211	-0.184092	-0.028450	85.869450	3.839270	-1.128552	11.288529	7.652337	-22.736295	-35.094568	40.990821	9.873428	48.041113	33.395160	25.500660	5.565019	47.502883	33.267847	14.796035	-4.872162	62.454991	43.085716	8.514954	-10.084569	62.584630	42.654395
-0.465000	-1.899941	-3.552005	97.501371	-0.093086	-0.183720	-0.028146	86.132963	3.821011	-1.103030	11.307649	7.660372	-22.710286	-35.071311	40.766320	9.830307	48.046443	33.360558	25.271026	5.579760	47.343497	33.175702	14.527366	-4.850826	62.263422	42.960328	8.384214	-10.131773	62.243355	42.538283
-0.455000	-1.899941	-3.552005	97.501371	-0.092925	-0.183364	-0.027844	86.375031	3.823291	-1.105351	11.331514	7.602382	-22.728110	-35.074177	40.503379	9.776042	48.023597	33.282190	25.041911	5.595413	47.174299	33.067945	14.266550	-4.828920	62.062439	42.827067	8.295623	-10.177533	61.909404	42.413029
-0.445000	-1.899941	-3.552005	97.501371	-0.092702	-0.183035	-0.027567	86.551553	3.847672	-1.123493	11.349221	7.493590	-22.782447	-35.090665	40.258624	9.701935	47.972460	33.166728	24.871256	5.607500	47.021126	32.952747	14.080924	-4.809068	61.867364	42.689675	8.272157	-10.204862	61.650121	42.297438
-0.435000	-1.899941	-3.552005	97.501371	-0.092390	-0.182718	-0.027315	86.641549	3.895239	-1.149031	11.354251	7.372353	-22.851692	-35.103770	40.083750	9.602581	47.904933	33.032661	24.799408	5.612660	46.909113	32.842531	14.018185	-4.792389	61.692903	42.554733	8.314090	-10.200649	61.516407	42.209207
-0.425000	-1.899941	-3.552005	97.501371	-0.091977	-0.182391	-0.027073	86.653474	3.966354	-1.183121	11.348796	7.287944	-22.911389	-35.102791	40.003427	9.480984	47.838612	32.903987	24.834054	5.610842	46.855761	32.752155	14.087098	-4.778174	61.554273	42.435563	8.401945	-10.162970	61.521729	42.156949
-0.415000	-1.899941	-3.552005	97.501371	-0.091465	-0.182032	-0.026823	86.617365	4.058323	-1.234552	11.341721	7.283614	-22.946621	-35.089186	40.008312	9.349078	47.788370	32.802305	24.952862	5.605294	46.866190	32.695369	14.258127	-4.765043	61.466301	42.351710	8.508721	-10.101172	61.637511	42.136740
-0.405000	-1.899941	-3.552005	97.501371	-0.090871	-0.181633	-0.026548	86.569273	4.164051	-1.312446	11.341408	7.382783	-22.957859	-35.074575	40.063728	9.223365	47.762491	32.742245	25.119699	5.600470	46.932629	32.681066	14.481658	-4.752620	61.439920	42.322877	8.613136	-10.029705	61.807484	42.135738
-0.395000	-1.899941	-3.552005	97.501371	-0.090214	-0.181204	-0.026243	86.537795	4.274117	-1.419639	11.348932	7.584056	-22.957363	-35.073496	40.124815	9.118642	47.766612	32.732384	25.301870	5.599518	47.038564	32.710889	14.710431	-4.742201	61.478538	42.360093	8.706817	-9.961711	61.972115	42.139880
-0.385000	-1.899941	-3.552005	97.501371	-0.089504	-0.180764	-0.025905	86.538159	4.381173	-1.550701	11.356188	7.865101	-22.959431	-35.095809	40.149740	9.043277	47.811647	32.779328	25.478904	5.602908	47.165423	32.778750	14.913809	-4.735762	61.576769	42.458867	8.793545	-9.906563	62.090905	42.140544
-0.375000	-1.899941	-3.552005	97.501371	-0.088740	-0.180336	-0.025535	86.572381	4.482847	-1.694002	11.349497	8.191148	-22.971385	-35.142535	40.109974	8.997660	47.917312	32.890290	25.642879	5.608512	47.298644	32.872465	15.081242	-4.734128	61.721900	42.598678	8.883820	-9.870060	62.154094	42.136967
-0.365000	-1.899941	-3.552005	97.501371	-0.087914	-0.179940	-0.025138	86.631477	4.580459	-1.834935	11.315830	8.523814	-22.991126	-35.206548	40.000807	8.975547	48.104988	33.070470	25.795763	5.612661	47.430998	32.977872	15.219966	-4.735972	61.896847	42.750320	8.989892	-9.853642	62.180793	42.134238
-0.355000	-1.899941	-3.552005	97.501371	-0.087025	-0.179596	-0.024719	86.698517	4.674640	-1.958488	11.248308	8.828291	-23.012161	-35.277467	39.851367	8.967362	48.381332	33.314946	25.947377	5.611780	47.562629	33.084676	15.351747	-4.738603	62.083052	42.887999	9.123829	-9.851946	62.206063	42.138759
-0.345000	-1.899941	-3.552005	97.501371	-0.086087	-0.179315	-0.024292	86.754190	4.761395	-2.050966	11.148881	9.078457	-23.031657	-35.348175	39.725872	8.964658	48.722416	33.599500	26.113286	5.604372	47.698206	33.191014	15.508583	-4.740029	62.262964	42.999500	9.297090	-9.852151	62.263863	42.153894
-0.335000	-1.899941	-3.552005	97.501371	-0.085124	-0.179099	-0.023867	86.785066	4.831430	-2.100696	11.027281	9.259989	-23.054865	-35.418969	39.706734	8.964679	49.071102	33.878421	26.310391	5.592756	47.842945	33.303443	15.724461	-4.740746	62.423587	43.088940	9.518872	-9.839124	62.373878	42.178320
-0.325000	-1.899941	-3.552005	97.501371	-0.084170	-0.178932	-0.023452	86.790456	4.873094	-2.097195	10.895853	9.372394	-23.091919	-35.495782	39.860758	8.973129	49.354111	34.095523	26.549698	5.583575	48.000829	33.432307	16.022456	-4.743867	62.562495	43.171800	9.793062	-9.806357	62.537499	42.208052
-0.315000	-1.899941	-3.552005	97.501371	-0.083260	-0.178783	-0.023048	86.782563	4.877384	-2.029316	10.761033	9.431431	-23.148850	-35.582464	40.205174	9.002872	49.512312	34.205838	26.828766	5.586292	48.177554	33.586324	16.402173	-4.753198	62.694090	43.266474	10.116392	-9.766935	62.743466	42.240818
-0.305000	-1.899941	-3.552005	97.501371	-0.082422	-0.178610	-0.022652	86.779401	4.842557	-1.884674	10.615044	9.471822	-23.219397	-35.671926	40.695672	9.067653	49.527207	34.195895	27.129298	5.609725	48.385745	33.770064	16.836983	-4.770315	62.849421	43.386801	10.479749	-9.755302	62.979285	42.279762
